# xmcd
#
# Track frame offsets: 
#        150
#        16955
#        33805
#        51192
#        68577
#        85345
#        103615
#        123030
#        139680
#        156767
#        173552
#        190940
#
# Disc length: 2723 seconds
#
# Revision: 0
# Processed by: cddbd v1.5.1PL2 Copyright (c) Steve Scherf et al.
# Submitted via: ExactAudioCopy v0.95b2
#
DISCID=8d0aa10c
DTITLE=Nadine Norell - Liebe
DYEAR=1995
DGENRE=Pop
TTITLE0=Fliege weisser Adler
TTITLE1=Haus zum kleinen Glück
TTITLE2=Good-Bye Norma Jean
TTITLE3=Johnny weine nicht
TTITLE4=Schliess die Augen
TTITLE5=Ave Maria (Stimmen Nachts im Wind)
TTITLE6=Sehnsucht
TTITLE7=Wenn der Mond die Nacht berührt
TTITLE8=In deinem Zimmer brennt noch Licht
TTITLE9=So allein
TTITLE10=Tag für Tag
TTITLE11=Zeit zu Geh'n
EXTD=
EXTT0=
EXTT1=
EXTT2=
EXTT3=
EXTT4=
EXTT5=
EXTT6=
EXTT7=
EXTT8=
EXTT9=
EXTT10=
EXTT11=
PLAYORDER=
